<svg width="235" height="89" viewBox="0 0 235 89" fill="none" xmlns="http://www.w3.org/2000/svg">
<rect width="235" height="89" fill="white"/>
<path d="M0.68 81C1.27733 81 1.87467 80.4027 2.472 79.208C3.06933 78.0133 3.368 76.0507 3.368 73.32V11.88C3.368 9.14933 3.06933 7.22933 2.472 6.12C1.87467 4.92533 1.27733 4.28533 0.68 4.2H20.392C19.7947 4.2 19.1973 4.79733 18.6 5.992C18.0027 7.18666 17.704 9.192 17.704 12.008V32.872C17.704 34.7493 17.9173 35.8587 18.344 36.2C18.856 36.5413 20.392 36.712 22.952 36.712H61.224C63.784 36.712 65.2773 36.584 65.704 36.328C66.1307 35.9867 66.344 34.8347 66.344 32.872V11.88C66.344 9.14933 66.0453 7.22933 65.448 6.12C64.8507 4.92533 64.2533 4.28533 63.656 4.2H83.368C82.7707 4.2 82.1733 4.79733 81.576 5.992C80.9787 7.18666 80.68 9.192 80.68 12.008V73.32C80.68 76.0507 80.9787 78.0133 81.576 79.208C82.1733 80.4027 82.7707 81 83.368 81H63.656C64.2533 81 64.8507 80.4027 65.448 79.208C66.0453 78.0133 66.344 76.0507 66.344 73.32V50.792C66.344 48.8293 66.088 47.72 65.576 47.464C65.1493 47.1227 63.6987 46.952 61.224 46.952H22.952C20.392 46.952 18.856 47.1227 18.344 47.464C17.9173 47.8053 17.704 48.9147 17.704 50.792V73.32C17.704 76.0507 18.0027 78.0133 18.6 79.208C19.1973 80.4027 19.7947 81 20.392 81H0.68Z" fill="#E6A8A1"/>
<g filter="url(#filter0_d_0_1)">
<path d="M102.68 81C103.277 81 103.875 80.4027 104.472 79.208C105.069 78.0133 105.368 76.0507 105.368 73.32V11.88C105.368 9.14933 105.069 7.22933 104.472 6.12C103.875 4.92533 103.277 4.28533 102.68 4.2H122.392C121.795 4.2 121.197 4.79733 120.6 5.992C120.003 7.18666 119.704 9.192 119.704 12.008V66.664C119.704 68.5413 119.917 69.6933 120.344 70.12C120.856 70.4613 122.392 70.632 124.952 70.632H157.336C162.285 70.632 166.253 70.0773 169.24 68.968C172.312 67.7733 174.317 66.6213 175.256 65.512L172.696 78.312V81H102.68Z" fill="#736797"/>
</g>
<g filter="url(#filter1_d_0_1)">
<path d="M84.52 81C85.08 81 85.6 80.44 86.08 79.32C86.64 78.2 86.92 76.36 86.92 73.8V32.04C86.92 29.48 86.64 27.68 86.08 26.64C85.6 25.52 85.08 24.92 84.52 24.84H99.16V73.8C99.16 76.36 99.4 78.2 99.88 79.32C100.44 80.44 101 81 101.56 81H84.52ZM91.84 13.32C89.52 13.32 87.72 12.68 86.44 11.4C85.16 10.04 84.52 8.48 84.52 6.72C84.52 4.88 85.12 3.32 86.32 2.03999C87.6 0.759996 89.44 0.119997 91.84 0.119997C94.24 0.119997 96.04 0.759996 97.24 2.03999C98.52 3.32 99.16 4.88 99.16 6.72C99.16 8.48 98.52 10.04 97.24 11.4C95.96 12.68 94.16 13.32 91.84 13.32Z" fill="#B8A8B9"/>
</g>
<g filter="url(#filter2_d_0_1)">
<path d="M162.328 81C163.011 81 163.693 80.4453 164.376 79.336C165.144 78.1413 165.528 76.136 165.528 73.32V45.544C163.139 42.728 160.536 39.6987 157.72 36.456C154.904 33.128 152.131 29.8853 149.4 26.728C146.669 23.4853 144.195 20.584 141.976 18.024C139.757 15.464 138.051 13.5013 136.856 12.136C134.381 9.40533 132.333 7.44266 130.712 6.24799C129.176 4.96799 128.152 4.28533 127.64 4.2H152.6C152.003 4.28533 151.789 4.92533 151.96 6.12C152.131 7.31466 153.197 9.31999 155.16 12.136C156.099 13.416 157.251 15.0373 158.616 17C160.067 18.8773 161.603 20.968 163.224 23.272C164.845 25.4907 166.467 27.7093 168.088 29.928C169.795 32.1467 171.331 34.152 172.696 35.944H172.824C174.104 34.2373 175.555 32.36 177.176 30.312C178.883 28.1787 180.547 26.0027 182.168 23.784C183.875 21.5653 185.496 19.432 187.032 17.384C188.568 15.2507 189.848 13.416 190.872 11.88C192.835 8.97867 193.901 6.97333 194.072 5.864C194.243 4.75466 194.029 4.2 193.432 4.2H217.496C217.069 4.2 216.131 4.79733 214.68 5.992C213.229 7.10133 211.309 9.02133 208.92 11.752C206.531 14.568 204.099 17.384 201.624 20.2C199.235 23.016 196.803 25.832 194.328 28.648C191.939 31.464 189.549 34.28 187.16 37.096C184.771 39.912 182.339 42.728 179.864 45.544V73.32C179.864 76.136 180.12 78.1413 180.632 79.336C181.229 80.4453 181.827 81 182.424 81H162.328Z" fill="#8E6D87"/>
</g>
<path d="M189.36 82.28C174.683 82.28 164.059 78.7813 157.488 71.784C151.003 64.7013 147.76 54.8453 147.76 42.216C147.76 34.1093 149.168 27.1547 151.984 21.352C154.885 15.464 159.365 10.9413 165.424 7.784C171.568 4.54133 179.547 2.92 189.36 2.92H193.328C202.971 2.92 210.779 4.49866 216.752 7.656C222.811 10.8133 227.248 15.336 230.064 21.224C232.88 27.112 234.288 34.1093 234.288 42.216C234.288 54.8453 231.045 64.7013 224.56 71.784C218.075 78.7813 207.664 82.28 193.328 82.28H189.36ZM190.64 71.912H192.048C198.448 71.912 203.696 70.9733 207.792 69.096C211.888 67.2187 214.917 64.1467 216.88 59.88C218.928 55.528 219.952 49.64 219.952 42.216C219.952 34.9627 218.928 29.2453 216.88 25.064C214.832 20.7973 211.76 17.768 207.664 15.976C203.568 14.0987 198.363 13.16 192.048 13.16H190.64C184.24 13.16 178.907 14.0987 174.64 15.976C170.459 17.8533 167.301 20.9253 165.168 25.192C163.12 29.4587 162.096 35.1333 162.096 42.216C162.096 49.5547 163.12 55.4 165.168 59.752C167.301 64.104 170.501 67.2187 174.768 69.096C179.035 70.9733 184.325 71.912 190.64 71.912Z" fill="#F4D8D5"/>
<defs>
<filter id="filter0_d_0_1" x="98.68" y="4.2" width="80.576" height="84.8" filterUnits="userSpaceOnUse" color-interpolation-filters="sRGB">
<feFlood flood-opacity="0" result="BackgroundImageFix"/>
<feColorMatrix in="SourceAlpha" type="matrix" values="0 0 0 0 0 0 0 0 0 0 0 0 0 0 0 0 0 0 127 0" result="hardAlpha"/>
<feOffset dy="4"/>
<feGaussianBlur stdDeviation="2"/>
<feComposite in2="hardAlpha" operator="out"/>
<feColorMatrix type="matrix" values="0 0 0 0 0 0 0 0 0 0 0 0 0 0 0 0 0 0 0.25 0"/>
<feBlend mode="normal" in2="BackgroundImageFix" result="effect1_dropShadow_0_1"/>
<feBlend mode="normal" in="SourceGraphic" in2="effect1_dropShadow_0_1" result="shape"/>
</filter>
<filter id="filter1_d_0_1" x="80.52" y="0.119995" width="25.04" height="88.88" filterUnits="userSpaceOnUse" color-interpolation-filters="sRGB">
<feFlood flood-opacity="0" result="BackgroundImageFix"/>
<feColorMatrix in="SourceAlpha" type="matrix" values="0 0 0 0 0 0 0 0 0 0 0 0 0 0 0 0 0 0 127 0" result="hardAlpha"/>
<feOffset dy="4"/>
<feGaussianBlur stdDeviation="2"/>
<feComposite in2="hardAlpha" operator="out"/>
<feColorMatrix type="matrix" values="0 0 0 0 0 0 0 0 0 0 0 0 0 0 0 0 0 0 0.25 0"/>
<feBlend mode="normal" in2="BackgroundImageFix" result="effect1_dropShadow_0_1"/>
<feBlend mode="normal" in="SourceGraphic" in2="effect1_dropShadow_0_1" result="shape"/>
</filter>
<filter id="filter2_d_0_1" x="123.64" y="4.2" width="97.856" height="84.8" filterUnits="userSpaceOnUse" color-interpolation-filters="sRGB">
<feFlood flood-opacity="0" result="BackgroundImageFix"/>
<feColorMatrix in="SourceAlpha" type="matrix" values="0 0 0 0 0 0 0 0 0 0 0 0 0 0 0 0 0 0 127 0" result="hardAlpha"/>
<feOffset dy="4"/>
<feGaussianBlur stdDeviation="2"/>
<feComposite in2="hardAlpha" operator="out"/>
<feColorMatrix type="matrix" values="0 0 0 0 0 0 0 0 0 0 0 0 0 0 0 0 0 0 0.25 0"/>
<feBlend mode="normal" in2="BackgroundImageFix" result="effect1_dropShadow_0_1"/>
<feBlend mode="normal" in="SourceGraphic" in2="effect1_dropShadow_0_1" result="shape"/>
</filter>
</defs>
</svg>
