<svg width="321" height="321" viewBox="0 0 321 321" fill="none" xmlns="http://www.w3.org/2000/svg">
<rect width="321" height="321" fill="#F4D8D5"/>
<path d="M43.68 205C44.2773 205 44.8747 204.403 45.472 203.208C46.0693 202.013 46.368 200.051 46.368 197.32V135.88C46.368 133.149 46.0693 131.229 45.472 130.12C44.8747 128.925 44.2773 128.285 43.68 128.2H63.392C62.7947 128.2 62.1973 128.797 61.6 129.992C61.0027 131.187 60.704 133.192 60.704 136.008V156.872C60.704 158.749 60.9173 159.859 61.344 160.2C61.856 160.541 63.392 160.712 65.952 160.712H104.224C106.784 160.712 108.277 160.584 108.704 160.328C109.131 159.987 109.344 158.835 109.344 156.872V135.88C109.344 133.149 109.045 131.229 108.448 130.12C107.851 128.925 107.253 128.285 106.656 128.2H126.368C125.771 128.2 125.173 128.797 124.576 129.992C123.979 131.187 123.68 133.192 123.68 136.008V197.32C123.68 200.051 123.979 202.013 124.576 203.208C125.173 204.403 125.771 205 126.368 205H106.656C107.253 205 107.851 204.403 108.448 203.208C109.045 202.013 109.344 200.051 109.344 197.32V174.792C109.344 172.829 109.088 171.72 108.576 171.464C108.149 171.123 106.699 170.952 104.224 170.952H65.952C63.392 170.952 61.856 171.123 61.344 171.464C60.9173 171.805 60.704 172.915 60.704 174.792V197.32C60.704 200.051 61.0027 202.013 61.6 203.208C62.1973 204.403 62.7947 205 63.392 205H43.68Z" fill="white"/>
<g filter="url(#filter0_d_0_1)">
<path d="M145.68 205C146.277 205 146.875 204.403 147.472 203.208C148.069 202.013 148.368 200.051 148.368 197.32V135.88C148.368 133.149 148.069 131.229 147.472 130.12C146.875 128.925 146.277 128.285 145.68 128.2H165.392C164.795 128.2 164.197 128.797 163.6 129.992C163.003 131.187 162.704 133.192 162.704 136.008V190.664C162.704 192.541 162.917 193.693 163.344 194.12C163.856 194.461 165.392 194.632 167.952 194.632H200.336C205.285 194.632 209.253 194.077 212.24 192.968C215.312 191.773 217.317 190.621 218.256 189.512L215.696 202.312V205H145.68Z" fill="white"/>
</g>
<g filter="url(#filter1_d_0_1)">
<path d="M127.52 205C128.08 205 128.6 204.44 129.08 203.32C129.64 202.2 129.92 200.36 129.92 197.8V156.04C129.92 153.48 129.64 151.68 129.08 150.64C128.6 149.52 128.08 148.92 127.52 148.84H142.16V197.8C142.16 200.36 142.4 202.2 142.88 203.32C143.44 204.44 144 205 144.56 205H127.52ZM134.84 137.32C132.52 137.32 130.72 136.68 129.44 135.4C128.16 134.04 127.52 132.48 127.52 130.72C127.52 128.88 128.12 127.32 129.32 126.04C130.6 124.76 132.44 124.12 134.84 124.12C137.24 124.12 139.04 124.76 140.24 126.04C141.52 127.32 142.16 128.88 142.16 130.72C142.16 132.48 141.52 134.04 140.24 135.4C138.96 136.68 137.16 137.32 134.84 137.32Z" fill="white"/>
</g>
<g filter="url(#filter2_d_0_1)">
<path d="M205.328 205C206.011 205 206.693 204.445 207.376 203.336C208.144 202.141 208.528 200.136 208.528 197.32V169.544C206.139 166.728 203.536 163.699 200.72 160.456C197.904 157.128 195.131 153.885 192.4 150.728C189.669 147.485 187.195 144.584 184.976 142.024C182.757 139.464 181.051 137.501 179.856 136.136C177.381 133.405 175.333 131.443 173.712 130.248C172.176 128.968 171.152 128.285 170.64 128.2H195.6C195.003 128.285 194.789 128.925 194.96 130.12C195.131 131.315 196.197 133.32 198.16 136.136C199.099 137.416 200.251 139.037 201.616 141C203.067 142.877 204.603 144.968 206.224 147.272C207.845 149.491 209.467 151.709 211.088 153.928C212.795 156.147 214.331 158.152 215.696 159.944H215.824C217.104 158.237 218.555 156.36 220.176 154.312C221.883 152.179 223.547 150.003 225.168 147.784C226.875 145.565 228.496 143.432 230.032 141.384C231.568 139.251 232.848 137.416 233.872 135.88C235.835 132.979 236.901 130.973 237.072 129.864C237.243 128.755 237.029 128.2 236.432 128.2H260.496C260.069 128.2 259.131 128.797 257.68 129.992C256.229 131.101 254.309 133.021 251.92 135.752C249.531 138.568 247.099 141.384 244.624 144.2C242.235 147.016 239.803 149.832 237.328 152.648C234.939 155.464 232.549 158.28 230.16 161.096C227.771 163.912 225.339 166.728 222.864 169.544V197.32C222.864 200.136 223.12 202.141 223.632 203.336C224.229 204.445 224.827 205 225.424 205H205.328Z" fill="white"/>
</g>
<path d="M232.36 206.28C217.683 206.28 207.059 202.781 200.488 195.784C194.003 188.701 190.76 178.845 190.76 166.216C190.76 158.109 192.168 151.155 194.984 145.352C197.885 139.464 202.365 134.941 208.424 131.784C214.568 128.541 222.547 126.92 232.36 126.92H236.328C245.971 126.92 253.779 128.499 259.752 131.656C265.811 134.813 270.248 139.336 273.064 145.224C275.88 151.112 277.288 158.109 277.288 166.216C277.288 178.845 274.045 188.701 267.56 195.784C261.075 202.781 250.664 206.28 236.328 206.28H232.36ZM233.64 195.912H235.048C241.448 195.912 246.696 194.973 250.792 193.096C254.888 191.219 257.917 188.147 259.88 183.88C261.928 179.528 262.952 173.64 262.952 166.216C262.952 158.963 261.928 153.245 259.88 149.064C257.832 144.797 254.76 141.768 250.664 139.976C246.568 138.099 241.363 137.16 235.048 137.16H233.64C227.24 137.16 221.907 138.099 217.64 139.976C213.459 141.853 210.301 144.925 208.168 149.192C206.12 153.459 205.096 159.133 205.096 166.216C205.096 173.555 206.12 179.4 208.168 183.752C210.301 188.104 213.501 191.219 217.768 193.096C222.035 194.973 227.325 195.912 233.64 195.912Z" fill="white"/>
<path opacity="0.1" d="M320.5 160.5C320.5 248.866 248.866 320.5 160.5 320.5C72.1344 320.5 0.5 248.866 0.5 160.5C0.5 72.1344 72.1344 0.5 160.5 0.5C248.866 0.5 320.5 72.1344 320.5 160.5Z" fill="white" stroke="black"/>
<defs>
<filter id="filter0_d_0_1" x="141.68" y="128.2" width="80.576" height="84.8" filterUnits="userSpaceOnUse" color-interpolation-filters="sRGB">
<feFlood flood-opacity="0" result="BackgroundImageFix"/>
<feColorMatrix in="SourceAlpha" type="matrix" values="0 0 0 0 0 0 0 0 0 0 0 0 0 0 0 0 0 0 127 0" result="hardAlpha"/>
<feOffset dy="4"/>
<feGaussianBlur stdDeviation="2"/>
<feComposite in2="hardAlpha" operator="out"/>
<feColorMatrix type="matrix" values="0 0 0 0 0 0 0 0 0 0 0 0 0 0 0 0 0 0 0.25 0"/>
<feBlend mode="normal" in2="BackgroundImageFix" result="effect1_dropShadow_0_1"/>
<feBlend mode="normal" in="SourceGraphic" in2="effect1_dropShadow_0_1" result="shape"/>
</filter>
<filter id="filter1_d_0_1" x="123.52" y="124.12" width="25.04" height="88.88" filterUnits="userSpaceOnUse" color-interpolation-filters="sRGB">
<feFlood flood-opacity="0" result="BackgroundImageFix"/>
<feColorMatrix in="SourceAlpha" type="matrix" values="0 0 0 0 0 0 0 0 0 0 0 0 0 0 0 0 0 0 127 0" result="hardAlpha"/>
<feOffset dy="4"/>
<feGaussianBlur stdDeviation="2"/>
<feComposite in2="hardAlpha" operator="out"/>
<feColorMatrix type="matrix" values="0 0 0 0 0 0 0 0 0 0 0 0 0 0 0 0 0 0 0.25 0"/>
<feBlend mode="normal" in2="BackgroundImageFix" result="effect1_dropShadow_0_1"/>
<feBlend mode="normal" in="SourceGraphic" in2="effect1_dropShadow_0_1" result="shape"/>
</filter>
<filter id="filter2_d_0_1" x="166.64" y="128.2" width="97.856" height="84.8" filterUnits="userSpaceOnUse" color-interpolation-filters="sRGB">
<feFlood flood-opacity="0" result="BackgroundImageFix"/>
<feColorMatrix in="SourceAlpha" type="matrix" values="0 0 0 0 0 0 0 0 0 0 0 0 0 0 0 0 0 0 127 0" result="hardAlpha"/>
<feOffset dy="4"/>
<feGaussianBlur stdDeviation="2"/>
<feComposite in2="hardAlpha" operator="out"/>
<feColorMatrix type="matrix" values="0 0 0 0 0 0 0 0 0 0 0 0 0 0 0 0 0 0 0.25 0"/>
<feBlend mode="normal" in2="BackgroundImageFix" result="effect1_dropShadow_0_1"/>
<feBlend mode="normal" in="SourceGraphic" in2="effect1_dropShadow_0_1" result="shape"/>
</filter>
</defs>
</svg>
